# xmcd
#
# Track frame offsets:
#	150
#	18835
#	37740
#	54467
#	73635
#	89725
#	106332
#	124802
#	143117
#	157115
#	169295
#	184730
#	201032
#
# Disc length: 2792 seconds
#
# Revision: 1
# Processed by: cddbd v1.4PL0 Copyright (c) Steve Scherf et al.
# Submitted via: audiograbber 1.81.00
#
DISCID=b20ae60d
DTITLE=Cato Sanden - Skål For Dette Landet
DYEAR=1900
DGENRE=
TTITLE0=Skål For Dette Landet
TTITLE1=Olemann
TTITLE2=En Gammel Drøm
TTITLE3=Han Lengter Tilbake
TTITLE4=På Veien Igjen
TTITLE5=Sylvia
TTITLE6=Som Du Vil
TTITLE7=Mine Drømmer Lever
TTITLE8=Her Kan Du Bli
TTITLE9=E6
TTITLE10=Ny Vår
TTITLE11=Tid
TTITLE12=Trailer
EXTD=
EXTT0=
EXTT1=
EXTT2=
EXTT3=
EXTT4=
EXTT5=
EXTT6=
EXTT7=
EXTT8=
EXTT9=
EXTT10=
EXTT11=
EXTT12=
PLAYORDER=
